<?xml version="1.0" encoding="UTF-8" standalone="no"?>
<svg xmlns:inkscape="http://www.inkscape.org/namespaces/inkscape" xmlns:sodipodi="http://sodipodi.sourceforge.net/DTD/sodipodi-0.dtd" xmlns="http://www.w3.org/2000/svg" xmlns:svg="http://www.w3.org/2000/svg" width="806.64838" height="200" viewBox="0 0 806.64838 200" fill="none" version="1.1" id="svg63" sodipodi:docname="Roadie_logo.svg" inkscape:version="1.2.2 (b0a84865, 2022-12-01)">
  <defs id="defs67"></defs>
  <g id="g208" transform="scale(6.5052286)">
    <path d="m 44.3238,25.5865 -2.1201,-4.5977 h -2.194 v 4.5977 H 34.1425 V 7.88614 h 8.5666 c 2.4077,0 4.2669,0.55262 5.5776,1.65786 1.3107,1.1052 1.966,2.6645 1.966,4.6778 0,1.2819 -0.2403,2.3974 -0.7211,3.3465 -0.4807,0.9491 -1.173,1.7031 -2.0769,2.2619 l 3.476,5.7563 z m -4.3141,-9.0351 h 2.6994 c 0.641,0 1.132,-0.189 1.473,-0.567 0.341,-0.378 0.5115,-0.9039 0.5115,-1.5777 0,-0.6574 -0.1725,-1.1669 -0.5177,-1.5285 -0.3451,-0.3615 -0.834,-0.5423 -1.4668,-0.5423 h -2.6994 z m 19.352,-4.9797 c 1.5613,0 2.9316,0.2917 4.1108,0.8751 1.1792,0.5834 2.0872,1.4093 2.7241,2.4776 0.6368,1.0682 0.9552,2.3173 0.9552,3.7471 0,1.4298 -0.3184,2.6789 -0.9552,3.7472 -0.6369,1.0682 -1.5449,1.8961 -2.7241,2.4837 -1.1792,0.5875 -2.5495,0.8813 -4.1108,0.8813 -1.5613,0 -2.9336,-0.2938 -4.1169,-0.8813 -1.1833,-0.5876 -2.0934,-1.4155 -2.7302,-2.4837 -0.6369,-1.0683 -0.9553,-2.3174 -0.9553,-3.7472 0,-1.4298 0.3184,-2.6789 0.9553,-3.7471 0.6368,-1.0683 1.5448,-1.8942 2.724,-2.4776 1.1792,-0.5834 2.5536,-0.8751 4.1231,-0.8751 z m 0,4.499 c -0.6245,0 -1.1258,0.2445 -1.5038,0.7334 -0.378,0.4889 -0.567,1.1361 -0.567,1.9414 0,0.8053 0.189,1.4524 0.567,1.9413 0.378,0.489 0.8793,0.7334 1.5038,0.7334 0.6246,0 1.1238,-0.2444 1.4977,-0.7334 0.3738,-0.4889 0.5608,-1.136 0.5608,-1.9413 0,-0.8053 -0.189,-1.4525 -0.567,-1.9414 -0.378,-0.4889 -0.8752,-0.7334 -1.4915,-0.7334 z m 16.2705,-4.5484 c 2.0051,0 3.5684,0.45 4.6901,1.3498 1.1217,0.8998 1.6825,2.1591 1.6825,3.7779 v 8.9365 H 76.4211 V 24.095 c -0.8382,1.1587 -2.1324,1.738 -3.8827,1.738 -1.4463,0 -2.5783,-0.3903 -3.3959,-1.171 -0.8176,-0.7806 -1.2264,-1.8366 -1.2264,-3.1678 0,-1.3641 0.454,-2.3995 1.362,-3.1062 0.908,-0.7067 2.2372,-1.0765 3.9875,-1.1093 h 3.1555 c -0.0164,-0.4849 -0.2054,-0.8588 -0.567,-1.1217 -0.3616,-0.263 -0.8875,-0.3945 -1.5777,-0.3945 -0.5424,0 -1.1875,0.076 -1.9353,0.2281 -0.7477,0.152 -1.4996,0.3718 -2.2556,0.6594 l -1.2696,-3.7841 c 1.1751,-0.4355 2.3481,-0.7683 3.5191,-0.9984 1.171,-0.2301 2.27,-0.3452 3.2972,-0.3452 z m -1.134,10.7115 c 0.3698,0 0.7273,-0.0925 1.0724,-0.2774 0.3451,-0.1849 0.6286,-0.4458 0.8505,-0.7827 v -1.2696 h -1.9722 c -0.8053,0 -1.2079,0.3698 -1.2079,1.1094 0,0.3862 0.1088,0.6861 0.3266,0.8998 0.2178,0.2136 0.528,0.3205 0.9306,0.3205 z M 98.904,6.85074 V 25.5865 h -5.6824 v -1.3929 c -0.9121,1.0601 -2.079,1.5901 -3.5006,1.5901 -1.2655,0 -2.3769,-0.2938 -3.3342,-0.8813 -0.9574,-0.5876 -1.6969,-1.4237 -2.2187,-2.5084 -0.5218,-1.0847 -0.7827,-2.3502 -0.7827,-3.7965 0,-1.4133 0.2527,-2.6501 0.758,-3.7101 0.5054,-1.0601 1.2244,-1.8777 2.1571,-2.4529 0.9327,-0.5752 2.0194,-0.8628 3.2603,-0.8628 0.7395,0 1.4216,0.1396 2.0461,0.419 0.6245,0.2794 1.1628,0.678 1.6147,1.1957 V 6.85074 Z M 91.1878,21.4202 c 0.6163,0 1.1094,-0.2444 1.4791,-0.7334 0.3698,-0.4889 0.5547,-1.136 0.5547,-1.9413 0,-0.8053 -0.1849,-1.4525 -0.5547,-1.9414 -0.3697,-0.4889 -0.8628,-0.7334 -1.4791,-0.7334 -0.6245,0 -1.1258,0.2445 -1.5038,0.7334 -0.378,0.4889 -0.567,1.1361 -0.567,1.9414 0,0.8053 0.189,1.4524 0.567,1.9413 0.378,0.489 0.8793,0.7334 1.5038,0.7334 z m 16.2952,4.1663 h -5.67 V 11.7812 h 5.67 z M 104.66,4.96484 c 0.847,0 1.539,0.26912 2.077,0.80737 0.538,0.53824 0.808,1.22645 0.808,2.06462 0,0.83818 -0.27,1.52844 -0.808,2.07079 -0.538,0.54238 -1.23,0.81348 -2.077,0.81348 -0.838,0 -1.526,-0.2691 -2.064,-0.80731 -0.539,-0.53824 -0.808,-1.23056 -0.808,-2.07696 0,-0.83817 0.269,-1.52638 0.808,-2.06462 0.538,-0.53825 1.226,-0.80737 2.064,-0.80737 z m 11.969,6.60686 c 1.512,0 2.823,0.3122 3.932,0.9367 1.109,0.6246 1.96,1.512 2.551,2.6625 0.592,1.1504 0.888,2.5022 0.888,4.0553 0,0.3205 -0.008,0.5629 -0.025,0.7272 h -8.985 c 0.189,0.5424 0.478,0.9512 0.869,1.2265 0.39,0.2753 0.864,0.4129 1.423,0.4129 0.995,0 1.927,-0.4109 2.798,-1.2326 l 2.959,2.909 c -0.74,0.8217 -1.636,1.4462 -2.688,1.8735 -1.051,0.4273 -2.243,0.641 -3.574,0.641 -1.545,0 -2.887,-0.2897 -4.025,-0.869 -1.138,-0.5793 -2.005,-1.399 -2.6,-2.4591 -0.596,-1.06 -0.894,-2.2967 -0.894,-3.7101 0,-1.4463 0.302,-2.7077 0.906,-3.7842 0.604,-1.0764 1.467,-1.9105 2.588,-2.5022 1.122,-0.5916 2.414,-0.8874 3.877,-0.8874 z m 1.664,5.7563 c 0.033,-0.567 -0.107,-1.0354 -0.419,-1.4052 -0.312,-0.3698 -0.711,-0.5547 -1.196,-0.5547 -0.468,0 -0.858,0.1767 -1.171,0.53 -0.312,0.3534 -0.53,0.83 -0.653,1.4299 z" fill="#ea580c" id="path59"></path>
    <path d="m 13.2866,26.835 v -1.1942 l 13.3071,-7.6636 -3.4188,-1.9711 -9.8883,5.6925 v -1.19 L 26.516,12.8858 23.1013,10.9147 13.2866,16.5664 V 15.3722 L 26.6346,7.68407 13.2866,0 0,7.68407 V 23.0604 l 13.2866,7.6841 13.348,-7.6841 -3.3943,-1.9588 z" fill="#ea580c" id="path61"></path>
  </g>
</svg>
