<?xml version="1.0" encoding="UTF-8" standalone="no"?>
<svg xmlns:inkscape="http://www.inkscape.org/namespaces/inkscape" xmlns:sodipodi="http://sodipodi.sourceforge.net/DTD/sodipodi-0.dtd" xmlns="http://www.w3.org/2000/svg" xmlns:svg="http://www.w3.org/2000/svg" width="35.794876in" height="5.2083354in" viewBox="0 0 5369.2444 781.25109" version="1.1" id="svg3" sodipodi:docname="CtrlStack_logo.svg" inkscape:version="1.1.1 (3bf5ae0d25, 2021-09-20)">
  <defs id="defs7"></defs>
  <path id="Selection #1" fill="none" stroke="#000000" stroke-width="1" d="M 1285.458,749.57511 V 174.15467 23.700684 c 0.053,-22.80565606 0.9503,-23.70310058 23.756,-23.75589122 h 142.5353 V 749.57511 Z M 3473.6395,-0.05520722 h 145.1749 c 21.0371,0.13197712 21.0899,3.11466082 21.1163,26.39543422 V 451.30672 l 117.7236,-147.81444 c 8.209,-10.29421 30.3284,-41.75756 40.8866,-45.92804 4.7775,-1.90047 12.9866,-1.58372 18.2392,-1.58372 h 176.8494 c -5.1734,18.16006 -28.7182,40.43779 -41.52,55.4304 l -96.8185,113.50037 -29.0613,34.31406 c -3.8273,4.51362 -11.7988,12.80179 -12.9338,18.4768 -1.4781,7.39072 5.5167,15.44133 9.5288,21.11635 l 36.8743,50.15135 100.382,137.25623 c 13.5408,18.79355 33.7861,43.20934 44.1067,63.34903 h -184.768 l -17.6322,-1.50453 -15.5733,-16.97224 -26.633,-39.59319 -77.365,-113.50035 -42.2855,-58.06996 v 174.20989 c 0,9.71349 2.5075,47.40616 -4.2233,52.73804 -4.1969,3.29943 -14.2799,2.69234 -19.5326,3.06188 h -108.2212 -34.3141 z M 5366.1923,18.421598 c 4.5928,11.561199 2.6391,39.197218 2.6391,52.790868 V 179.43375 c -0.026,6.86282 0.3964,14.64947 -2.2432,21.11635 -7.2589,17.71134 -39.6459,33.65418 -55.8266,44.05399 l -100.3026,62.37239 c -17.3945,10.79574 -34.8683,16.28599 -44.6082,36.10896 -5.7543,11.74596 -2.9299,26.63299 -2.9035,39.59315 v 95.02356 c -0.5808,49.41228 -29.4045,55.404 -65.9886,78.34165 l -55.4304,33.49579 -139.8958,86.55066 -58.07,36.37287 -63.349,38.22059 c -21.5387,13.40891 -42.1535,31.62173 -68.6281,30.46037 -19.7966,-0.87109 -36.6369,-14.0688 -52.7909,-24.54777 l -68.6281,-42.17991 -116.14,-71.53163 -95.0235,-58.86179 -58.07,-35.97698 c -14.0952,-8.02422 -36.1881,-19.66459 -44.8458,-33.49579 l -2.8528,-96.16831 -2.4527,-88.49418 c 0,0 81.7202,42.33828 108.2213,58.57148 l 221.7216,137.86335 71.2677,45.5585 c 11.614,7.36432 28.1112,18.21287 42.2326,18.39761 17.4739,0.21119 38.511,-15.65246 52.791,-25.02288 l 95.0236,-58.65063 c 8.7896,-5.51664 42.3646,-21.88181 37.1911,-33.97092 -3.1675,-7.41711 -29.2989,-22.5681 -37.1911,-27.39846 L 4761.7366,383.07452 4558.4919,257.88099 c -18.82,-10.79573 -75.359,-54.69134 -75.359,-54.69134 l -1.5616,-93.73972 c 0.3738,-88.38879 0.3738,-88.38879 0.3738,-88.38879 14.6495,2.982684 26.7385,11.534806 39.5931,18.872738 l 71.2676,43.367696 216.4426,134.194396 71.2677,44.60829 c 11.6404,7.33793 28.4543,19.00471 42.2328,19.95494 16.0748,1.10861 31.7008,-10.50537 44.8722,-18.76715 l 84.4653,-53.00204 179.4892,-111.151176 52.7907,-32.360802 z M 541.1068,124.00334 h 137.25624 c 22.80568,0.0528 23.70313,0.95024 23.75589,23.75589 v 71.26767 c 0,7.33794 -1.10859,25.12846 2.69235,30.85627 4.17047,6.22933 11.77233,5.96537 18.424,6.09735 h 95.02358 v 121.41899 h -89.74451 c -6.81,0.0264 -16.94584,-0.52791 -22.17213,4.5928 -5.12074,5.01514 -4.19688,15.12459 -4.22329,21.80263 v 158.37261 c 0.29037,23.04319 5.4111,50.60002 26.39542,63.77138 21.22193,13.30328 58.4659,6.46688 81.82586,2.21719 4.98875,17.60573 2.66594,78.26247 2.63953,100.30263 0,5.27912 0.6863,14.93985 -2.61313,19.21589 -3.27302,4.19688 -13.40891,6.51969 -18.50318,7.89225 -17.20985,4.5664 -35.00038,7.17953 -52.7909,7.20594 -52.79084,0.0792 -104.57867,2.32281 -147.81441,-34.86835 C 528.75372,674.13696 541.1068,560.84776 541.1068,485.62079 v -81.82585 c -0.0266,-6.70444 0.84463,-17.10424 -4.22328,-22.17216 -5.06792,-5.06793 -15.46772,-4.19688 -22.17215,-4.22327 h -52.79088 v -68.62813 l -92.38403,105.58173 c -15.20376,-5.27908 -16.47074,-11.19166 -29.03498,-19.50622 -14.83423,-9.8191 -37.66628,-17.23622 -55.43041,-17.44738 -17.73772,-0.21117 -25.33961,-0.39594 -42.23269,6.46687 -16.70831,6.81003 -27.02893,14.93982 -39.48756,27.84719 -59.78566,62.05566 -43.07735,170.38253 36.84802,206.83463 16.04842,7.31151 27.82079,7.04755 44.87223,6.96838 20.56205,-0.10557 40.04188,-5.56942 58.06996,-15.57333 7.65468,-4.24964 20.95797,-17.34178 28.9294,-15.20376 6.49327,1.71573 18.18646,17.28902 22.75286,22.85845 l 51.4711,63.34903 c 7.46991,9.23844 17.13063,18.87276 6.86281,29.90605 -10.47899,11.27083 -39.77792,27.02891 -54.58576,32.91511 -58.20192,23.12241 -82.14259,21.74985 -142.53535,21.64423 -35.26429,-0.0528 -70.29102,-8.71047 -102.94218,-21.64423 C 47.32741,701.85218 -0.15797765,604.90173 3.9478507e-4,496.17896 0.05318595,467.19677 7.9982112,422.43011 19.374644,395.87631 47.881712,329.25423 92.59558,288.60527 158.373,260.52053 c 22.14577,-9.44957 65.69823,-20.08692 89.74446,-20.37728 h 50.15133 c 37.16478,0.0528 97.7159,17.81693 129.33763,37.19117 10.08305,6.17653 25.18125,18.29203 34.31407,26.15786 v -47.51176 h 55.43042 c 7.20593,-0.0528 16.49714,0.71268 21.06354,-6.09735 3.98573,-5.99176 2.69235,-28.13754 2.69235,-36.13535 z m 1520.377,0 h 137.2563 c 22.8056,0.0528 23.7031,0.95024 23.7559,23.75589 v 71.26767 c 0,7.33794 -1.1086,25.12846 2.6923,30.85627 4.1705,6.22933 11.7724,5.96537 18.424,6.09735 h 95.0236 v 121.41899 h -89.7445 c -6.8101,0.0264 -16.9459,-0.52791 -22.1721,4.5928 -5.1208,5.01514 -4.1969,15.12459 -4.2233,21.80263 v 158.37261 c 0.2903,23.04319 5.4111,50.60002 26.3954,63.77138 21.2219,13.30328 58.4659,6.46688 81.8259,2.21719 4.9887,17.60573 2.6659,78.26247 2.6395,100.30263 0,5.27912 0.6862,14.93985 -2.6131,19.21589 -3.2731,4.19688 -13.4089,6.51969 -18.5033,7.89225 -17.2098,4.5664 -35.0003,7.17953 -52.7908,7.20594 -52.7909,0.0792 -104.5787,2.32281 -147.8144,-34.86835 -62.5044,-53.76752 -50.1514,-167.05672 -50.1514,-242.28369 v -81.82585 c -0.027,-6.70444 0.8447,-17.10424 -4.2232,-22.17216 -5.068,-5.06793 -15.4678,-4.19688 -22.1722,-4.22327 h -52.7909 V 255.98052 h 55.4304 c 7.206,-0.0528 16.4971,0.71268 21.0636,-6.09735 3.9857,-5.99176 2.6923,-28.13754 2.6923,-36.13535 z M 1053.1783,319.32955 c 20.1396,-41.01849 65.0647,-73.08895 110.8607,-76.30919 9.7927,-0.68628 46.8784,-3.40501 52.7382,3.98571 3.5898,4.51361 2.7451,18.87273 2.6923,24.8117 l -2.6395,34.31406 -2.6396,84.46539 -36.9537,-2.63954 c -14.1742,-0.0264 -25.7619,-0.89744 -39.5931,3.19385 -51.5239,15.20377 -81.5883,60.23437 -81.8259,112.94607 v 245.47751 l -23.7559,1.74209 -29.0349,-1.74209 H 892.16607 V 255.98052 h 158.37263 z m 665.1649,-78.79036 c 13.1185,-0.97664 26.369,-0.39594 39.5931,0 h 26.3954 c 33.9974,-0.34315 82.5914,12.45864 113.5005,26.60659 15.7316,7.20596 40.385,20.08693 52.3684,32.28161 11.8252,12.0891 -0.1847,20.13972 -8.7896,29.72126 l -48.858,50.8904 c -5.1999,5.1735 -16.3123,17.47377 -23.3071,18.87273 -7.3116,1.45175 -25.2341,-14.41191 -32.1232,-18.71436 -20.5621,-12.82818 -41.5729,-20.98437 -65.9887,-21.27472 -8.2618,-0.0792 -18.3976,-0.34314 -26.3954,1.37256 -21.7235,4.6456 -48.858,23.94066 -34.0765,48.67318 11.3237,18.95192 55.3248,28.16393 76.3092,32.88871 45.4266,10.24143 92.0937,24.3102 126.6717,57.19891 63.1643,60.10238 48.4356,176.34788 -21.09,225.25863 -59.0729,41.57282 -113.2892,41.88954 -182.1285,41.09767 -40.9129,-0.50151 -107.4029,-20.29808 -142.5352,-41.17684 -9.6344,-5.75422 -31.8858,-19.55901 -37.508,-28.58626 -6.5725,-10.58458 6.3877,-20.3773 12.9073,-27.45126 l 50.7585,-53.21319 c 4.8304,-5.06792 14.9926,-17.92251 21.6971,-19.26865 7.8393,-1.58375 26.237,17.28896 33.9708,22.54167 22.6473,15.41495 51.4712,28.03194 79.1864,27.8736 6.7572,0.58068 17.3681,0.79183 23.7558,0 25.2341,-5.51666 54.3218,-27.10813 36.2673,-54.87611 -12.9601,-19.92854 -45.8224,-28.19032 -67.9418,-33.44303 -38.2733,-9.1064 -84.4654,-20.77322 -116.1399,-44.42349 -47.5381,-35.47548 -50.7848,-71.2413 -50.1514,-125.43112 0.4224,-35.52826 17.5794,-67.57232 42.3384,-92.27844 33.7333,-33.68056 76.4147,-44.71386 121.3134,-55.14005 z m 688.9208,81.4299 c 48.4093,-47.3534 127.0148,-81.72025 195.3262,-81.82584 h 60.7095 c 15.7845,0.18477 37.4288,4.27607 52.7909,8.31457 58.3075,15.36214 90.4307,42.02153 115.3217,97.26716 25.3924,56.38065 24.5741,121.68296 24.5741,182.12851 v 221.72162 h -36.9536 -113.5004 v -42.23267 c -19.6117,14.04235 -25.234,25.44517 -50.1513,37.24392 -61.1055,28.90303 -154.5717,25.23407 -211.1634,-12.82818 -48.858,-32.8623 -61.3431,-76.94268 -60.7095,-132.63702 0.2903,-24.09907 6.7571,-48.30365 19.9285,-68.62814 20.7731,-32.09684 60.7623,-53.97866 96.2113,-65.98858 38.1678,-12.90737 99.6428,-23.28078 139.8959,-23.75589 11.2708,-0.13198 49.4122,2.58675 56.4598,-4.59281 7.7602,-7.89223 -1.1878,-29.85324 -6.2293,-37.63988 -19.1631,-29.61569 -52.395,-34.47244 -84.5446,-34.31408 -26.5011,0.13198 -53.6884,10.37341 -76.5468,23.41276 -8.1033,4.64559 -30.0644,21.61786 -36.9536,21.9346 -10.1358,0.44873 -20.5356,-13.93679 -26.7122,-20.85239 -16.5763,-18.58238 -45.9016,-46.40317 -57.7532,-66.72766 z m 773.3863,-81.27153 h 42.2326 c 51.656,-0.55431 87.4217,4.6192 134.6167,27.84718 11.7461,5.78061 44.6347,22.30414 47.8286,35.18511 2.2172,8.97445 -8.8161,19.79658 -14.2271,26.15787 l -54.7177,63.37544 c -6.2558,7.15316 -15.4679,21.67065 -26.3956,18.02809 l -26.3954,-18.68798 c -21.0899,-12.77539 -36.6896,-15.49412 -60.7095,-15.20376 -77.629,0.95022 -123.821,95.15554 -101.5696,163.65169 13.0394,40.14745 45.0834,76.38835 88.3719,84.04304 h 26.3954 c 18.4241,0.34313 36.6106,-4.69839 52.791,-13.69922 7.0211,-3.90651 22.568,-17.23621 28.9294,-17.07782 7.7074,0.21115 18.028,14.9398 22.7792,20.6412 l 49.7026,60.7095 c 5.2527,6.41412 16.1276,17.47376 15.4941,26.15788 -0.8975,12.61703 -34.6572,31.30501 -45.6377,36.37292 -61.211,28.24309 -98.5869,27.95277 -163.6517,27.21366 -20.694,-0.26391 -40.7545,-5.1999 -60.7095,-10.215 -80.7436,-20.32449 -144.4094,-77.4706 -172.3622,-156.0762 -12.1946,-34.23491 -15.4677,-72.13871 -15.0454,-108.22129 0.5016,-41.52002 12.5643,-85.12527 32.4928,-121.41899 43.6844,-79.50305 113.6324,-114.10746 199.7871,-128.78332 z m -490.9552,295.8664 c -44.661,6.07094 -96.4489,-2.95625 -134.5111,27.39849 -5.1207,4.0649 -10.7957,9.37037 -13.9895,15.17735 -7.9187,14.30631 -6.2821,39.06522 4.0649,51.60309 12.485,15.15094 30.4075,20.93157 49.4122,21.16912 40.6754,0.4751 73.1946,-3.74813 96.3961,-42.23267 9.3968,-15.54693 12.6962,-33.7598 13.7785,-51.68231 0.3166,-4.96228 1.1878,-13.96317 -2.0325,-18.00166 -3.4314,-4.38162 -8.3146,-3.51057 -13.1186,-3.43141 z" sodipodi:nodetypes="cccccccccccccsccccsccccccccccsccccccsccccccccccccccccccccccccccccccccccccccsccccccccscccccccccccccccscsccccccccccccccccccccccccccccsccccscccccccccccccccscscccccsccccccccccccccccccccccccccccccccccccccccccccccccccccscccccccccccccccccccscccccccccscccccccccccccccccccc" style="fill:#ff5700;fill-opacity:1;stroke:none;stroke-width:1.05;stroke-miterlimit:4;stroke-dasharray:0, 11.55;stroke-dashoffset:0;stroke-opacity:1"></path>
</svg>
