<?xml version="1.0" encoding="UTF-8" standalone="no"?>
<svg xmlns:inkscape="http://www.inkscape.org/namespaces/inkscape" xmlns:sodipodi="http://sodipodi.sourceforge.net/DTD/sodipodi-0.dtd" xmlns="http://www.w3.org/2000/svg" xmlns:svg="http://www.w3.org/2000/svg" fill="none" height="123.83107" viewBox="0 0 139.60637 123.83107" width="139.60637" version="1.1" id="svg14" sodipodi:docname="Twilio_logo_stacked.svg" inkscape:version="1.1.1 (3bf5ae0d25, 2021-09-20)">
  <defs id="defs18"></defs>
  <clipPath id="a">
    <path d="M 0,0 H 106.24 V 32 H 0 Z" id="path2"></path>
  </clipPath>
  <mask id="b" height="32" maskUnits="userSpaceOnUse" width="107" x="0" y="0">
    <path d="m 15.984,0 c 8.8444,0 15.9839,7.14667 15.9839,16 0,8.8533 -7.1395,16 -15.9839,16 C 7.1395,32 0,24.8533 0,16 0,7.14667 7.1395,0 15.984,0 Z m 0,4.26667 C 9.48381,4.26667 4.26239,9.49333 4.26239,16 c 0,6.5067 5.22142,11.7333 11.72161,11.7333 6.5001,0 11.7215,-5.2266 11.7215,-11.7333 0,-6.50667 -5.2214,-11.73333 -11.7215,-11.73333 z M 43.1567,6.29333 C 43.3698,6.18667 43.5829,6.4 43.5829,6.50667 v 4.58663 h 8.5248 c 0.1065,0 0.3197,0.2134 0.3197,0.32 l 0.6393,2.6667 0.6394,2.6667 0.1065,0.32 0.1066,-0.32 1.5984,-5.3334 c 0,-0.2133 0.2131,-0.32 0.3197,-0.32 h 4.2624 c 0.1065,0 0.3196,0.2134 0.3196,0.32 l 1.705,5.6534 0.1066,-0.32 1.3852,-5.3334 c 0,-0.2133 0.2131,-0.32 0.3197,-0.32 h 10.8691 c 0.1066,0 0.2131,0.2134 0.2131,0.32 V 25.6 c 0,0.2133 -0.2131,0.32 -0.3197,0.32 h -5.4345 c -0.2131,0 -0.3197,-0.2133 -0.3197,-0.32 l -7e-4,-13.44 -4.0486,13.44 c 0,0.1867 -0.1631,0.2917 -0.2753,0.315 L 64.5752,25.92 H 60.0997 C 59.9931,25.92 59.78,25.7067 59.78,25.6 L 58.9275,22.72 57.9685,19.6267 56.0504,25.6 c 0,0.2133 -0.2131,0.32 -0.3197,0.32 h -4.4755 c -0.1066,0 -0.3197,-0.2133 -0.3197,-0.32 L 46.8863,12.16 v 3.4133 c 0,0.2134 -0.2132,0.32 -0.3197,0.32 H 43.4763 V 19.52 c 0,1.0667 0.5328,1.4933 1.4919,1.4933 0.4262,0 0.959,-0.1066 1.4918,-0.32 0.1066,-0.1066 0.3197,0 0.3197,0.2134 v 4.2666 c -0.959,0.5334 -2.3443,0.8534 -3.8361,0.8534 -3.5165,0 -5.4346,-1.6 -5.4346,-5.12 v -5.0134 h -1.3853 c -0.2131,0 -0.3196,-0.2133 -0.3196,-0.32 V 11.52 c 0,-0.2133 0.2131,-0.32 0.3196,-0.32 H 37.509 V 8.32 C 37.509,8.10667 37.6156,8 37.8287,8 Z m 54.9848,4.47997 c 4.6885,0 8.0985,3.52 8.0985,7.5734 0,4.0533 -3.41,7.5733 -8.2051,7.5733 -4.6886,0 -8.0985,-3.52 -8.0985,-7.5733 0,-4.0534 3.4099,-7.5734 8.2051,-7.5734 z M 81.9444,6.29333 c 0.2131,0 0.3197,0.10667 0.3197,0.21334 V 25.4933 c 0,0.2134 -0.2132,0.32 -0.3197,0.32 h -5.4346 c -0.2131,0 -0.3196,-0.2133 -0.3196,-0.32 V 6.61333 c 0,-0.21333 0.2131,-0.32 0.3196,-0.32 z m 7.1395,4.79997 c 0.2131,0 0.3197,0.2134 0.3197,0.32 v 13.9734 c 0,0.2133 -0.2132,0.32 -0.3197,0.32 h -5.4346 c -0.2131,0 -0.3196,-0.2134 -0.3196,-0.32 V 11.4133 c 0,-0.2133 0.2131,-0.32 0.3196,-0.32 z M 12.0412,16.64 c 1.8116,0 3.3034,1.4933 3.3034,3.3067 0,1.8133 -1.4918,3.3066 -3.3034,3.3066 -1.8115,0 -3.30331,-1.4933 -3.30331,-3.3066 0,-1.8134 1.49181,-3.3067 3.30331,-3.3067 z m 7.8855,0 c 1.8115,0 3.3033,1.4933 3.3033,3.3067 0,1.8133 -1.4918,3.3066 -3.3033,3.3066 -1.8116,0 -3.3034,-1.4933 -3.3034,-3.3066 0,-1.8134 1.4918,-3.3067 3.3034,-3.3067 z m 78.2148,-0.7467 c -1.3853,0 -2.3444,1.1734 -2.3444,2.56 0,1.3867 1.0656,2.56 2.3444,2.56 1.3852,0 2.3445,-1.1733 2.3445,-2.56 0,-1.4933 -1.0658,-2.6666 -2.3445,-2.56 z M 19.9267,8.74667 c 1.8115,0 3.3033,1.49333 3.3033,3.30663 0,1.8134 -1.4918,3.3067 -3.3033,3.3067 -1.8116,0 -3.3034,-1.4933 -3.3034,-3.3067 0,-1.8133 1.4918,-3.30663 3.3034,-3.30663 z m -7.8855,0 c 1.8116,0 3.3034,1.49333 3.3034,3.30663 0,1.8134 -1.4918,3.3067 -3.3034,3.3067 -1.8115,0 -3.30331,-1.4933 -3.30331,-3.3067 0,-1.8133 1.49181,-3.30663 3.30331,-3.30663 z M 74.9115,6.29333 c 0.1065,0 0.2131,0.10667 0.3196,0.21334 V 9.92 c 0,0.2133 -0.2131,0.32 -0.3196,0.32 h -5.6477 c -0.2131,0 -0.3197,-0.2133 -0.3197,-0.32 V 6.61333 c 0,-0.21333 0.2131,-0.32 0.3197,-0.32 z m 14.2789,0 c 0.2132,0 0.3197,0.10667 0.3197,0.21334 V 9.92 c 0,0.2133 -0.2131,0.32 -0.3197,0.32 h -5.6476 c -0.2131,0 -0.3197,-0.2133 -0.3197,-0.32 V 6.61333 c 0,-0.21333 0.2131,-0.32 0.3197,-0.32 z" fill="#ffffff" id="path5"></path>
  </mask>
  <g inkscape:groupmode="layer" id="layer1" inkscape:label="Layer 1" transform="translate(9.9877965,-1.3862501)">
    <g id="g1805" transform="translate(-3.6042505,-77.352761)">
      <g clip-path="url(#a)" id="g12" transform="matrix(1.9875815,0,0,1.9875815,28.556758,78.739011)" style="stroke-width:0.503124">
        <g mask="url(#b)" id="g10" style="stroke-width:0.503124">
          <path d="m 15.984,0 c 8.8444,0 15.9839,7.14667 15.9839,16 0,8.8533 -7.1395,16 -15.9839,16 C 7.1395,32 0,24.8533 0,16 0,7.14667 7.1395,0 15.984,0 Z m 0,4.26667 C 9.48381,4.26667 4.26239,9.49333 4.26239,16 c 0,6.5067 5.22142,11.7333 11.72161,11.7333 6.5001,0 11.7215,-5.2266 11.7215,-11.7333 0,-6.50667 -5.2214,-11.73333 -11.7215,-11.73333 z M 12.0412,16.64 c 1.8116,0 3.3034,1.4933 3.3034,3.3067 0,1.8133 -1.4918,3.3066 -3.3034,3.3066 -1.8115,0 -3.30331,-1.4933 -3.30331,-3.3066 0,-1.8134 1.49181,-3.3067 3.30331,-3.3067 z m 7.8855,0 c 1.8115,0 3.3033,1.4933 3.3033,3.3067 0,1.8133 -1.4918,3.3066 -3.3033,3.3066 -1.8116,0 -3.3034,-1.4933 -3.3034,-3.3066 0,-1.8134 1.4918,-3.3067 3.3034,-3.3067 z m 0,-7.89333 c 1.8115,0 3.3033,1.49333 3.3033,3.30663 0,1.8134 -1.4918,3.3067 -3.3033,3.3067 -1.8116,0 -3.3034,-1.4933 -3.3034,-3.3067 0,-1.8133 1.4918,-3.30663 3.3034,-3.30663 z m -7.8855,0 c 1.8116,0 3.3034,1.49333 3.3034,3.30663 0,1.8134 -1.4918,3.3067 -3.3034,3.3067 -1.8115,0 -3.30331,-1.4933 -3.30331,-3.3067 0,-1.8133 1.49181,-3.30663 3.30331,-3.30663 z" fill="#f22f46" id="path8" sodipodi:nodetypes="ssssssssssssssssssssssssssssss" style="stroke-width:0.23856"></path>
        </g>
      </g>
      <path d="m 8.189205,163.45768 c 0.42237,-0.21141 0.84474,0.21142 0.84474,0.42285 v 9.09088 h 16.8965 c 0.21108,0 0.63365,0.42297 0.63365,0.63425 l 1.26712,5.28551 1.26732,5.2855 0.21109,0.63425 0.21128,-0.63425 3.16809,-10.57101 c 0,-0.42277 0.42238,-0.63425 0.63366,-0.63425 h 8.44825 c 0.21109,0 0.63346,0.42297 0.63346,0.63425 l 3.37938,11.20526 0.21128,-0.63425 2.74552,-10.57101 c 0,-0.42277 0.42238,-0.63425 0.63366,-0.63425 h 21.54299 c 0.21129,0 0.42237,0.42297 0.42237,0.63425 v 28.1186 c 0,0.42277 -0.42237,0.63426 -0.63365,0.63426 h -10.7714 c -0.42237,0 -0.63366,-0.42277 -0.63366,-0.63426 l -10e-4,-26.63861 -8.02448,26.63861 c 0,0.37006 -0.32328,0.57816 -0.54566,0.62435 l -0.0878,0.01 h -8.87062 c -0.21129,0 -0.63366,-0.42277 -0.63366,-0.63426 l -1.68969,-5.70827 -1.90077,-6.13105 -3.80175,11.83932 c 0,0.42277 -0.42238,0.63426 -0.63366,0.63426 h -8.87062 c -0.21129,0 -0.63366,-0.42277 -0.63366,-0.63426 l -8.0257,-26.63862 v 6.7653 c 0,0.42296 -0.42257,0.63425 -0.63366,0.63425 h -6.1251 v 7.18826 c 0,2.11424 1.05603,2.95978 2.95701,2.95978 0.84474,0 1.90077,-0.21128 2.9568,-0.63425 0.21129,-0.21129 0.63366,0 0.63366,0.42297 v 8.45657 c -1.90077,1.05722 -4.64649,1.69147 -7.6033,1.69147 -6.96985004,0 -10.7716,-3.17126 -10.7716,-10.14804 v -9.93684 h -2.745681 c -0.422373,0 -0.63346,-0.42277 -0.63346,-0.63425 v -8.0338 c 0,-0.42277 0.422373,-0.63426 0.63346,-0.63426 h 2.745321 v -5.70827 c 0,-0.42283 0.21128,-0.63425 0.63366,-0.63425 z m 108.982065,8.87948 c 9.2928,0 16.05155,6.97678 16.05155,15.01077 0,8.03381 -6.75875,15.01059 -16.26284,15.01059 -9.29299,0 -16.05155,-6.97678 -16.05155,-15.01059 0,-8.03399 6.75856,-15.01077 16.26284,-15.01077 z m -32.10329,-8.87948 c 0.42237,0 0.63365,0.21142 0.63365,0.42285 v 37.63225 c 0,0.42297 -0.42257,0.63425 -0.63365,0.63425 H 74.296375 c -0.42237,0 -0.63346,-0.42277 -0.63346,-0.63425 v -37.42085 c 0,-0.42283 0.42238,-0.63425 0.63346,-0.63425 z m 14.15077,9.51373 c 0.42237,0 0.63365,0.42297 0.63365,0.63425 v 27.69583 c 0,0.42277 -0.42257,0.63426 -0.63365,0.63426 h -10.7716 c -0.42238,0 -0.63346,-0.42297 -0.63346,-0.63426 v -27.69583 c 0,-0.42277 0.42237,-0.63425 0.63346,-0.63425 z m 17.95252,9.51379 c -2.74572,0 -4.64669,2.32572 -4.64669,5.07402 0,2.7485 2.11206,5.07402 4.64669,5.07402 2.74553,0 4.64689,-2.32552 4.64689,-5.07402 0,-2.95978 -2.11246,-5.28531 -4.64689,-5.07402 z M 71.128485,163.45768 c 0.21108,0 0.42237,0.21142 0.63346,0.42285 v 6.76535 c 0,0.42277 -0.42238,0.63425 -0.63346,0.63425 h -11.19397 c -0.42237,0 -0.63366,-0.42277 -0.63366,-0.63425 v -6.55395 c 0,-0.42283 0.42238,-0.63425 0.63366,-0.63425 z m 28.301335,0 c 0.42257,0 0.63367,0.21142 0.63367,0.42285 v 6.76535 c 0,0.42277 -0.42238,0.63425 -0.63367,0.63425 H 88.23606 c -0.42237,0 -0.63366,-0.42277 -0.63366,-0.63425 v -6.55395 c 0,-0.42283 0.42237,-0.63425 0.63366,-0.63425 z" style="fill:#f22f46;stroke-width:0.999997" id="path1428"></path>
    </g>
  </g>
</svg>
